<svg width="20" height="20" viewBox="0 0 20 20" fill="none" xmlns="http://www.w3.org/2000/svg">
<g clip-path="url(#clip0_1478_16861)">
<path d="M17.5 0H6.66667C5.28833 0 4.16667 1.12167 4.16667 2.5V5H0V17.0833C0 18.6917 1.30833 20 2.91667 20H17.0833C18.6917 20 20 18.6917 20 17.0833V2.5C20 1.12167 18.8783 0 17.5 0ZM4.16667 17.0833C4.16667 17.7725 3.60583 18.3333 2.91667 18.3333C2.2275 18.3333 1.66667 17.7725 1.66667 17.0833V6.66667H4.16667V17.0833ZM18.3333 17.0833C18.3333 17.7725 17.7725 18.3333 17.0833 18.3333H5.55167C5.73167 17.9542 5.83333 17.5308 5.83333 17.0833V2.5C5.83333 2.04083 6.2075 1.66667 6.66667 1.66667H17.5C17.9592 1.66667 18.3333 2.04083 18.3333 2.5V17.0833ZM12.5 5H16.6667V6.66667H12.5V5ZM7.5 8.33333H16.6667V10H7.5V8.33333ZM7.5 11.6667H16.6667V13.3333H7.5V11.6667ZM7.5 15H16.6667V16.6667H7.5V15ZM10.8333 6.66667H7.5V3.33333H10.8333V6.66667Z" fill="black"/>
</g>
<defs>
<clipPath id="clip0_1478_16861">
<rect width="20" height="20" fill="white"/>
</clipPath>
</defs>
</svg>
